<svg id="svg" version="1.1" xmlns="http://www.w3.org/2000/svg" xmlns:xlink="http://www.w3.org/1999/xlink" width="400" height="400" viewBox="0, 0, 400,400"><g id="svgg"><path id="path0" d="M129.376 92.987 C 128.949 93.310,128.240 93.586,127.800 93.600 C 126.967 93.626,125.600 94.479,125.600 94.973 C 125.600 95.129,125.330 95.527,125.000 95.857 C 124.159 96.698,124.149 103.516,124.987 104.624 C 125.408 105.180,125.578 106.506,125.587 109.300 C 125.595 111.625,125.762 113.200,126.000 113.200 C 126.238 113.200,126.400 114.708,126.400 116.924 C 126.400 119.578,126.569 120.870,126.987 121.424 C 127.401 121.970,127.578 123.273,127.587 125.820 C 127.594 127.811,127.764 129.611,127.965 129.820 C 128.166 130.029,128.391 131.985,128.465 134.167 C 128.558 136.884,128.758 138.186,129.100 138.300 C 129.457 138.419,129.600 139.651,129.600 142.610 C 129.600 144.940,129.775 146.861,130.000 147.000 C 130.220 147.136,130.400 148.732,130.400 150.547 C 130.400 152.829,130.581 154.087,130.987 154.624 C 131.407 155.179,131.578 156.503,131.587 159.276 C 131.594 161.415,131.779 163.264,132.000 163.400 C 132.220 163.536,132.400 165.312,132.400 167.347 C 132.400 169.981,132.569 171.271,132.987 171.824 C 133.412 172.385,133.578 173.727,133.587 176.676 C 133.594 178.948,133.777 180.862,134.000 181.000 C 134.220 181.136,134.400 182.732,134.400 184.547 C 134.400 186.829,134.581 188.087,134.987 188.624 C 135.408 189.180,135.578 190.506,135.587 193.300 C 135.595 195.625,135.762 197.200,136.000 197.200 C 136.238 197.200,136.400 198.708,136.400 200.924 C 136.400 203.578,136.569 204.870,136.987 205.424 C 137.407 205.979,137.578 207.303,137.587 210.076 C 137.594 212.215,137.779 214.064,138.000 214.200 C 138.220 214.336,138.400 215.932,138.400 217.747 C 138.400 220.029,138.581 221.287,138.987 221.824 C 139.412 222.385,139.578 223.727,139.587 226.676 C 139.594 228.948,139.777 230.862,140.000 231.000 C 140.220 231.136,140.400 232.745,140.400 234.575 C 140.400 237.044,140.555 238.030,141.000 238.400 C 141.463 238.784,141.600 239.847,141.600 243.049 C 141.600 245.550,141.759 247.200,142.000 247.200 C 142.238 247.200,142.400 248.708,142.400 250.924 C 142.400 253.578,142.569 254.870,142.987 255.424 C 143.402 255.972,143.578 257.279,143.587 259.876 C 143.594 261.898,143.780 263.664,144.000 263.800 C 144.221 263.936,144.400 265.728,144.400 267.795 C 144.400 270.593,144.552 271.695,145.000 272.143 C 145.453 272.596,145.600 273.721,145.600 276.748 C 145.600 278.986,145.776 280.862,146.000 281.000 C 146.220 281.136,146.400 282.844,146.400 284.795 C 146.400 287.415,146.557 288.500,147.000 288.943 C 147.453 289.396,147.600 290.521,147.600 293.548 C 147.600 295.786,147.776 297.662,148.000 297.800 C 148.220 297.936,148.400 299.212,148.400 300.636 C 148.400 302.568,148.552 303.284,149.000 303.455 C 149.330 303.582,149.600 303.986,149.600 304.354 C 149.600 305.154,150.959 306.400,151.833 306.400 C 152.176 306.400,152.727 306.670,153.057 307.000 C 153.584 307.526,159.340 307.600,200.000 307.600 C 240.660 307.600,246.416 307.526,246.943 307.000 C 247.273 306.670,247.824 306.400,248.167 306.400 C 249.041 306.400,250.400 305.154,250.400 304.354 C 250.400 303.986,250.670 303.582,251.000 303.455 C 251.454 303.281,251.600 302.546,251.600 300.436 C 251.600 298.902,251.780 297.536,252.000 297.400 C 252.225 297.261,252.400 295.346,252.400 293.025 C 252.400 289.845,252.538 288.784,253.000 288.400 C 253.445 288.030,253.600 287.044,253.600 284.575 C 253.600 282.745,253.780 281.136,254.000 281.000 C 254.224 280.862,254.400 278.986,254.400 276.748 C 254.400 273.721,254.547 272.596,255.000 272.143 C 255.448 271.695,255.600 270.593,255.600 267.795 C 255.600 265.728,255.779 263.936,256.000 263.800 C 256.223 263.662,256.400 261.812,256.400 259.625 C 256.400 256.622,256.541 255.581,257.000 255.200 C 257.455 254.822,257.600 253.797,257.600 250.951 C 257.600 248.717,257.762 247.200,258.000 247.200 C 258.238 247.200,258.405 245.625,258.413 243.300 C 258.422 240.506,258.592 239.180,259.013 238.624 C 259.425 238.078,259.600 236.805,259.600 234.347 C 259.600 232.422,259.780 230.736,260.000 230.600 C 260.223 230.462,260.406 228.548,260.413 226.276 C 260.422 223.327,260.588 221.985,261.013 221.424 C 261.419 220.887,261.600 219.629,261.600 217.347 C 261.600 215.532,261.780 213.936,262.000 213.800 C 262.224 213.662,262.400 211.786,262.400 209.548 C 262.400 206.521,262.547 205.396,263.000 204.943 C 263.443 204.500,263.600 203.415,263.600 200.795 C 263.600 198.844,263.780 197.136,264.000 197.000 C 264.223 196.862,264.400 195.012,264.400 192.825 C 264.400 189.822,264.541 188.781,265.000 188.400 C 265.450 188.026,265.600 187.022,265.600 184.375 C 265.600 182.435,265.780 180.736,266.000 180.600 C 266.221 180.463,266.400 178.653,266.400 176.548 C 266.400 173.699,266.551 172.592,267.000 172.143 C 267.457 171.686,267.600 170.546,267.600 167.371 C 267.600 164.857,267.759 163.200,268.000 163.200 C 268.241 163.200,268.400 161.550,268.400 159.049 C 268.400 155.847,268.537 154.784,269.000 154.400 C 269.450 154.026,269.600 153.022,269.600 150.375 C 269.600 148.435,269.780 146.736,270.000 146.600 C 270.221 146.464,270.406 144.615,270.413 142.476 C 270.422 139.703,270.593 138.379,271.013 137.824 C 271.425 137.278,271.600 136.005,271.600 133.547 C 271.600 131.622,271.780 129.936,272.000 129.800 C 272.224 129.662,272.400 127.786,272.400 125.548 C 272.400 122.521,272.547 121.396,273.000 120.943 C 273.443 120.500,273.600 119.415,273.600 116.795 C 273.600 114.844,273.780 113.136,274.000 113.000 C 274.220 112.864,274.406 111.098,274.413 109.076 C 274.422 106.479,274.598 105.172,275.013 104.624 C 275.851 103.516,275.841 96.698,275.000 95.857 C 274.670 95.527,274.400 95.129,274.400 94.973 C 274.400 94.493,273.043 93.626,272.271 93.613 C 271.871 93.606,271.273 93.330,270.943 93.000 C 270.043 92.100,130.566 92.087,129.376 92.987 M262.400 107.576 C 262.400 108.663,262.220 109.664,262.000 109.800 C 261.779 109.936,261.600 111.726,261.600 113.790 C 261.600 116.429,261.453 117.582,261.100 117.700 C 260.754 117.815,260.558 119.176,260.464 122.133 C 260.389 124.480,260.164 126.400,259.964 126.400 C 259.764 126.400,259.600 128.213,259.600 130.429 C 259.600 133.476,259.454 134.603,259.000 135.057 C 258.556 135.501,258.400 136.587,258.400 139.229 C 258.400 141.343,258.237 142.800,258.000 142.800 C 257.759 142.800,257.600 144.476,257.600 147.029 C 257.600 150.254,257.458 151.399,257.000 151.857 C 256.557 152.300,256.400 153.385,256.400 156.005 C 256.400 157.956,256.220 159.664,256.000 159.800 C 255.780 159.936,255.600 161.043,255.600 162.261 L 255.600 164.474 253.300 164.212 C 252.035 164.068,248.676 163.861,245.835 163.752 C 242.256 163.615,240.416 163.377,239.846 162.977 C 239.359 162.636,238.077 162.400,236.711 162.400 C 235.437 162.400,234.400 162.221,234.400 162.000 C 234.400 161.780,233.519 161.600,232.443 161.600 C 231.072 161.600,230.417 161.420,230.255 161.000 C 230.112 160.626,229.502 160.400,228.636 160.400 C 227.872 160.400,227.136 160.220,227.000 160.000 C 226.864 159.780,226.063 159.600,225.219 159.600 C 224.225 159.600,223.605 159.389,223.455 159.000 C 223.311 158.623,222.699 158.400,221.813 158.400 C 221.036 158.400,220.400 158.220,220.400 158.000 C 220.400 157.780,219.584 157.600,218.587 157.600 C 217.345 157.600,216.702 157.411,216.545 157.000 C 216.404 156.633,215.797 156.400,214.981 156.400 C 214.247 156.400,213.536 156.220,213.400 156.000 C 213.264 155.780,212.373 155.600,211.419 155.600 C 210.247 155.600,209.611 155.406,209.455 155.000 C 209.298 154.589,208.655 154.400,207.413 154.400 C 206.416 154.400,205.600 154.220,205.600 154.000 C 205.600 153.780,204.722 153.600,203.649 153.600 C 202.403 153.600,201.518 153.383,201.200 153.000 C 200.872 152.604,199.978 152.400,198.575 152.400 C 197.405 152.400,196.336 152.220,196.200 152.000 C 196.064 151.780,194.739 151.600,193.256 151.600 C 191.632 151.600,190.362 151.401,190.062 151.100 C 188.657 149.691,160.745 149.620,159.581 151.023 C 159.264 151.405,158.314 151.600,156.775 151.600 C 155.495 151.600,154.336 151.780,154.200 152.000 C 154.064 152.220,153.166 152.400,152.205 152.400 C 151.185 152.400,150.207 152.650,149.857 153.000 C 149.527 153.330,148.715 153.600,148.052 153.600 C 147.389 153.600,146.748 153.760,146.627 153.956 C 146.016 154.945,143.600 154.658,143.600 153.596 C 143.600 153.022,143.336 152.204,143.013 151.776 C 142.587 151.214,142.422 149.870,142.413 146.900 C 142.405 144.442,142.240 142.800,142.000 142.800 C 141.764 142.800,141.599 141.365,141.598 139.300 C 141.596 136.978,141.394 135.415,140.998 134.654 C 140.609 133.910,140.400 132.361,140.400 130.234 C 140.400 128.433,140.235 126.789,140.034 126.580 C 139.832 126.371,139.607 124.325,139.534 122.033 C 139.441 119.155,139.245 117.815,138.900 117.700 C 138.545 117.581,138.400 116.385,138.400 113.567 C 138.400 111.189,138.240 109.600,138.000 109.600 C 137.780 109.600,137.600 108.700,137.600 107.600 L 137.600 105.600 200.000 105.600 L 262.400 105.600 262.400 107.576 M188.800 161.792 C 196.683 162.844,201.181 163.740,206.800 165.381 C 207.790 165.670,209.410 166.133,210.400 166.410 C 211.390 166.687,214.090 167.534,216.400 168.292 C 223.876 170.744,227.656 171.719,235.200 173.139 C 241.570 174.339,245.810 174.800,250.472 174.800 C 255.426 174.800,255.700 174.970,255.388 177.841 C 254.992 181.494,253.977 189.786,253.557 192.800 C 253.328 194.450,253.075 197.240,252.996 199.000 C 252.917 200.760,252.557 204.540,252.197 207.400 C 251.837 210.260,251.384 214.040,251.191 215.800 C 250.998 217.560,250.551 221.340,250.199 224.200 C 249.846 227.060,249.400 230.750,249.209 232.400 C 249.017 234.050,248.566 237.740,248.205 240.600 C 247.845 243.460,247.391 247.240,247.197 249.000 C 247.002 250.760,246.554 254.450,246.199 257.200 C 245.845 259.950,245.390 263.550,245.188 265.200 C 244.987 266.850,244.533 270.540,244.181 273.400 C 243.504 278.890,243.166 281.841,242.393 289.000 C 242.131 291.420,241.704 294.030,241.442 294.800 L 240.967 296.200 199.983 296.200 L 159.000 296.200 158.520 294.000 C 158.037 291.790,157.327 286.382,156.786 280.800 C 156.220 274.953,155.581 269.775,155.193 267.880 C 154.977 266.824,154.800 265.252,154.800 264.386 C 154.800 263.520,154.627 262.044,154.416 261.106 C 154.050 259.476,153.464 254.882,152.796 248.400 C 151.807 238.787,151.522 236.462,151.182 235.200 C 150.974 234.430,150.803 232.731,150.802 231.424 C 150.801 230.117,150.626 228.047,150.414 226.824 C 149.958 224.191,149.263 218.736,148.780 214.000 C 148.590 212.130,148.256 209.160,148.037 207.400 C 147.818 205.640,147.451 202.130,147.219 199.600 C 146.988 197.070,146.622 193.650,146.405 192.000 C 146.189 190.350,145.738 186.660,145.404 183.800 C 145.070 180.940,144.623 177.250,144.411 175.600 C 143.537 168.785,143.507 167.375,144.222 166.782 C 145.395 165.808,150.588 164.105,157.600 162.395 C 158.370 162.207,160.620 161.846,162.600 161.591 C 164.580 161.337,166.470 161.063,166.800 160.982 C 168.227 160.629,184.606 161.233,188.800 161.792 " stroke="none" fill="#040404" fill-rule="evenodd"></path><path id="path1" d="M172.419 162.274 C 166.741 162.359,162.940 162.573,162.790 162.816 C 162.654 163.036,161.335 163.330,159.858 163.467 C 158.382 163.605,157.079 163.872,156.964 164.059 C 156.848 164.247,155.953 164.400,154.976 164.400 C 153.999 164.400,153.200 164.578,153.200 164.795 C 153.200 165.013,152.476 165.306,151.591 165.448 C 150.706 165.589,149.886 165.861,149.768 166.053 C 149.649 166.244,149.101 166.400,148.548 166.400 C 147.995 166.400,147.273 166.670,146.943 167.000 C 146.613 167.330,145.985 167.600,145.548 167.600 C 145.111 167.600,144.859 167.772,144.990 167.983 C 145.287 168.465,145.996 175.391,146.259 180.395 C 146.369 182.482,146.630 184.395,146.839 184.647 C 147.048 184.899,147.316 186.791,147.435 188.852 C 147.555 190.913,147.847 193.106,148.085 193.724 C 148.358 194.436,148.422 196.296,148.259 198.790 C 148.087 201.407,148.202 204.324,148.601 207.466 C 148.932 210.070,149.380 213.640,149.597 215.400 C 149.814 217.160,150.264 220.770,150.596 223.423 C 150.928 226.075,151.221 229.225,151.247 230.423 C 151.273 231.620,151.447 233.140,151.633 233.800 C 151.888 234.703,151.933 234.429,151.814 232.692 C 151.724 231.372,151.858 230.001,152.128 229.492 L 152.600 228.600 167.700 228.705 L 182.800 228.810 182.800 214.819 C 182.800 201.370,182.830 200.812,183.578 200.412 C 184.104 200.130,195.288 200.029,218.078 200.098 L 251.800 200.200 252.073 201.600 C 252.289 202.707,252.309 202.623,252.169 201.200 C 252.072 200.210,251.883 198.274,251.749 196.897 C 251.579 195.138,251.659 194.211,252.020 193.776 C 252.334 193.398,252.605 191.531,252.719 188.970 C 252.822 186.666,253.062 184.685,253.253 184.567 C 253.444 184.449,253.600 182.844,253.600 181.000 C 253.600 179.156,253.780 177.536,254.000 177.400 C 255.140 176.695,254.011 176.400,250.174 176.400 C 247.849 176.400,245.644 176.243,245.274 176.052 C 244.903 175.861,242.911 175.603,240.847 175.479 C 238.784 175.356,236.903 175.063,236.667 174.827 C 236.432 174.592,235.297 174.400,234.144 174.400 C 232.991 174.400,231.950 174.243,231.832 174.052 C 231.714 173.860,230.676 173.613,229.525 173.502 C 228.375 173.392,227.366 173.099,227.284 172.851 C 227.201 172.603,226.439 172.400,225.590 172.400 C 224.742 172.400,223.949 172.241,223.829 172.046 C 223.708 171.852,222.798 171.571,221.805 171.422 C 220.812 171.273,220.000 170.982,220.000 170.775 C 220.000 170.569,219.379 170.400,218.621 170.400 C 217.722 170.400,216.883 170.068,216.212 169.447 C 215.647 168.922,214.422 168.281,213.492 168.023 C 212.561 167.764,211.260 167.394,210.600 167.202 C 204.975 165.561,198.248 163.989,192.597 162.994 C 188.444 162.263,183.921 162.101,172.419 162.274 M251.492 205.200 C 251.325 206.410,251.105 208.660,251.002 210.200 L 250.816 213.000 251.416 209.400 C 251.746 207.420,251.967 205.170,251.906 204.400 C 251.812 203.212,251.750 203.333,251.492 205.200 M149.889 207.700 C 149.801 208.415,149.728 207.830,149.728 206.400 C 149.728 204.970,149.801 204.385,149.889 205.100 C 149.978 205.815,149.978 206.985,149.889 207.700 M151.194 214.476 C 151.197 215.508,151.020 216.464,150.800 216.600 C 150.548 216.756,150.402 215.839,150.406 214.124 C 150.410 212.217,150.529 211.580,150.800 212.000 C 151.013 212.330,151.191 213.444,151.194 214.476 M250.193 215.714 C 250.044 216.913,249.998 218.233,250.092 218.647 C 250.187 219.061,250.406 218.177,250.580 216.682 C 250.755 215.187,250.800 213.867,250.682 213.748 C 250.563 213.630,250.343 214.514,250.193 215.714 M249.492 222.000 C 249.325 223.210,249.105 225.460,249.002 227.000 L 248.816 229.800 249.416 226.200 C 249.746 224.220,249.967 221.970,249.906 221.200 C 249.812 220.012,249.750 220.133,249.492 222.000 M151.890 224.093 C 151.801 224.812,151.726 224.320,151.724 223.000 C 151.722 221.680,151.795 221.092,151.886 221.693 C 151.977 222.294,151.979 223.374,151.890 224.093 M248.064 233.800 C 247.797 235.780,247.404 238.375,247.189 239.567 C 246.975 240.758,246.821 242.648,246.846 243.767 C 246.881 245.292,247.035 244.701,247.464 241.400 C 247.778 238.980,248.228 235.826,248.465 234.391 C 248.701 232.957,248.816 231.427,248.722 230.991 C 248.627 230.556,248.331 231.820,248.064 233.800 M183.680 234.480 C 183.323 234.837,183.200 238.935,183.200 250.447 C 183.200 258.965,183.091 266.219,182.957 266.567 C 182.697 267.246,156.422 267.575,156.382 266.900 C 156.373 266.735,156.115 265.700,155.809 264.600 C 155.154 262.240,154.934 263.873,155.573 266.354 C 155.778 267.149,156.233 270.410,156.585 273.600 C 156.937 276.790,157.399 280.750,157.612 282.400 C 157.825 284.050,158.279 287.645,158.622 290.389 C 158.965 293.134,159.340 295.474,159.456 295.589 C 159.777 295.910,240.419 295.893,240.617 295.573 C 240.810 295.260,241.705 288.990,242.384 283.200 C 243.602 272.794,244.055 269.213,244.411 267.176 C 245.053 263.503,244.825 262.212,244.053 265.151 C 243.466 267.388,243.317 267.622,242.843 267.051 C 242.363 266.474,240.818 266.400,229.198 266.400 L 216.093 266.400 215.852 265.500 C 215.719 265.005,215.608 258.063,215.605 250.074 C 215.602 240.836,215.449 235.266,215.186 234.774 C 214.675 233.820,184.620 233.540,183.680 234.480 M152.194 237.800 C 152.383 241.432,153.591 251.329,153.878 251.595 C 154.180 251.875,153.471 245.127,152.386 237.400 L 152.049 235.000 152.194 237.800 M199.400 235.992 L 185.000 236.200 184.792 250.400 L 184.585 264.600 184.492 250.100 L 184.400 235.600 199.100 235.692 L 213.800 235.785 199.400 235.992 M246.240 247.600 C 245.740 250.989,245.147 256.600,244.992 259.400 L 244.837 262.200 245.393 258.600 C 246.315 252.633,246.924 246.970,246.708 246.367 C 246.597 246.055,246.386 246.610,246.240 247.600 M154.255 255.000 C 154.367 256.760,154.615 259.190,154.807 260.400 C 155.099 262.250,155.118 262.091,154.924 259.400 C 154.797 257.640,154.549 255.210,154.372 254.000 C 154.109 252.199,154.088 252.380,154.255 255.000 M157.889 274.500 C 157.801 275.215,157.728 274.630,157.728 273.200 C 157.728 271.770,157.801 271.185,157.889 271.900 C 157.978 272.615,157.978 273.785,157.889 274.500 M242.292 274.691 C 242.205 275.521,242.133 274.940,242.131 273.400 C 242.129 271.860,242.200 271.181,242.289 271.891 C 242.377 272.601,242.379 273.861,242.292 274.691 M159.194 281.476 C 159.197 282.398,159.020 283.264,158.800 283.400 C 158.549 283.555,158.402 282.706,158.406 281.124 C 158.410 279.347,158.527 278.778,158.800 279.200 C 159.013 279.530,159.191 280.554,159.194 281.476 M241.594 282.100 C 241.590 283.862,241.473 284.423,241.200 284.000 C 240.590 283.056,240.781 279.600,241.443 279.600 C 241.529 279.600,241.597 280.725,241.594 282.100 M159.887 291.100 C 159.795 291.705,159.720 291.210,159.720 290.000 C 159.720 288.790,159.795 288.295,159.887 288.900 C 159.978 289.505,159.978 290.495,159.887 291.100 M240.290 291.293 C 240.201 292.012,240.126 291.520,240.124 290.200 C 240.122 288.880,240.195 288.292,240.286 288.893 C 240.377 289.494,240.379 290.574,240.290 291.293 " stroke="none" fill="#0459b3" fill-rule="evenodd"></path><path id="path2" d="M215.467 200.667 C 214.893 201.240,215.164 233.472,215.747 233.956 C 216.139 234.281,220.749 234.380,232.040 234.305 L 247.787 234.200 248.087 232.600 C 248.253 231.720,248.563 229.290,248.776 227.200 C 248.989 225.110,249.443 221.240,249.785 218.600 C 250.128 215.960,250.568 212.090,250.765 210.000 C 250.961 207.910,251.214 205.930,251.328 205.600 C 251.441 205.270,251.640 203.965,251.770 202.700 L 252.007 200.400 233.870 200.400 C 223.895 200.400,215.613 200.520,215.467 200.667 M152.145 230.599 C 152.019 230.928,152.136 233.223,152.406 235.699 C 153.354 244.398,153.520 245.826,153.923 248.800 C 154.146 250.450,154.536 253.690,154.788 256.000 C 155.040 258.310,155.461 261.460,155.723 263.000 L 156.200 265.800 169.491 265.905 L 182.782 266.011 182.940 250.105 C 183.026 241.357,183.231 233.414,183.395 232.452 C 183.617 231.154,183.553 230.616,183.147 230.359 C 182.087 229.687,152.407 229.917,152.145 230.599 " stroke="none" fill="#62cbfb" fill-rule="evenodd"></path><path id="path3" d="M183.500 200.432 C 182.854 200.808,182.800 201.928,182.800 214.825 L 182.800 228.810 167.700 228.705 L 152.600 228.600 152.100 229.546 C 151.825 230.066,151.611 230.786,151.625 231.146 C 151.643 231.593,151.765 231.515,152.012 230.900 L 152.374 230.000 167.487 230.006 C 184.228 230.013,183.822 229.950,183.395 232.452 C 183.231 233.414,183.026 241.360,182.940 250.110 L 182.782 266.021 169.454 265.910 C 156.928 265.807,156.138 265.842,156.310 266.500 C 156.578 267.522,182.566 267.588,182.957 266.567 C 183.091 266.219,183.200 258.965,183.200 250.447 C 183.200 238.935,183.323 234.837,183.680 234.480 C 184.620 233.540,214.675 233.820,215.186 234.774 C 215.449 235.266,215.602 240.836,215.605 250.074 C 215.608 258.063,215.719 265.005,215.852 265.500 L 216.093 266.400 229.198 266.400 C 240.776 266.400,242.365 266.475,242.839 267.046 C 243.546 267.898,244.289 265.303,244.801 260.200 C 245.000 258.220,245.445 254.350,245.790 251.600 C 246.135 248.850,246.581 245.070,246.779 243.200 C 246.978 241.330,247.235 239.260,247.351 238.600 C 247.467 237.940,247.656 236.680,247.770 235.800 L 247.978 234.200 232.045 234.309 C 218.843 234.399,216.034 234.322,215.652 233.862 C 215.317 233.459,215.219 228.844,215.295 216.954 L 215.400 200.600 233.600 200.394 C 248.746 200.222,246.128 200.174,218.000 200.106 C 195.617 200.052,183.964 200.162,183.500 200.432 M149.728 206.400 C 149.728 207.830,149.801 208.415,149.889 207.700 C 149.978 206.985,149.978 205.815,149.889 205.100 C 149.801 204.385,149.728 204.970,149.728 206.400 M150.406 214.124 C 150.402 215.839,150.548 216.756,150.800 216.600 C 151.311 216.284,151.311 212.791,150.800 212.000 C 150.529 211.580,150.410 212.217,150.406 214.124 M151.724 223.000 C 151.726 224.320,151.801 224.812,151.890 224.093 C 151.979 223.374,151.977 222.294,151.886 221.693 C 151.795 221.092,151.722 221.680,151.724 223.000 M157.728 273.200 C 157.728 274.630,157.801 275.215,157.889 274.500 C 157.978 273.785,157.978 272.615,157.889 271.900 C 157.801 271.185,157.728 271.770,157.728 273.200 M242.131 273.400 C 242.133 274.940,242.205 275.521,242.292 274.691 C 242.379 273.861,242.377 272.601,242.289 271.891 C 242.200 271.181,242.129 271.860,242.131 273.400 M158.406 281.124 C 158.402 282.706,158.549 283.555,158.800 283.400 C 159.311 283.084,159.311 279.990,158.800 279.200 C 158.527 278.778,158.410 279.347,158.406 281.124 M241.043 280.233 C 240.675 281.192,240.764 283.325,241.200 284.000 C 241.473 284.423,241.590 283.862,241.594 282.100 C 241.600 279.546,241.472 279.113,241.043 280.233 M159.720 290.000 C 159.720 291.210,159.795 291.705,159.887 291.100 C 159.978 290.495,159.978 289.505,159.887 288.900 C 159.795 288.295,159.720 288.790,159.720 290.000 M240.124 290.200 C 240.126 291.520,240.201 292.012,240.290 291.293 C 240.379 290.574,240.377 289.494,240.286 288.893 C 240.195 288.292,240.122 288.880,240.124 290.200 " stroke="none" fill="#0493fb" fill-rule="evenodd"></path><path id="path4" d="M166.800 160.982 C 166.470 161.063,164.580 161.337,162.600 161.591 C 160.620 161.846,158.370 162.207,157.600 162.395 C 150.588 164.105,145.395 165.808,144.222 166.782 C 143.507 167.375,143.537 168.785,144.411 175.600 C 144.623 177.250,145.070 180.940,145.404 183.800 C 145.738 186.660,146.189 190.350,146.405 192.000 C 146.622 193.650,146.998 197.160,147.241 199.800 C 147.484 202.440,147.838 205.860,148.028 207.400 C 148.218 208.940,148.547 212.000,148.758 214.200 C 148.970 216.400,149.243 218.470,149.366 218.800 C 149.586 219.389,150.057 223.473,150.821 231.400 C 151.365 237.042,152.030 240.577,151.761 236.400 C 151.479 232.009,150.949 226.302,150.443 222.200 C 149.609 215.452,149.203 212.203,148.601 207.466 C 148.202 204.324,148.087 201.407,148.259 198.790 C 148.422 196.296,148.358 194.436,148.085 193.724 C 147.847 193.106,147.555 190.913,147.435 188.852 C 147.316 186.791,147.048 184.899,146.839 184.647 C 146.630 184.395,146.369 182.482,146.259 180.395 C 145.996 175.391,145.287 168.465,144.990 167.983 C 144.859 167.772,145.111 167.600,145.548 167.600 C 145.985 167.600,146.613 167.330,146.943 167.000 C 147.273 166.670,147.995 166.400,148.548 166.400 C 149.101 166.400,149.649 166.244,149.768 166.053 C 149.886 165.861,150.706 165.589,151.591 165.448 C 152.476 165.306,153.200 165.013,153.200 164.795 C 153.200 164.578,153.999 164.400,154.976 164.400 C 155.953 164.400,156.848 164.247,156.964 164.059 C 157.079 163.872,158.382 163.605,159.858 163.467 C 161.335 163.330,162.648 163.046,162.777 162.837 C 163.221 162.120,188.524 162.189,192.400 162.918 C 198.858 164.133,205.180 165.621,210.600 167.202 C 211.260 167.394,212.561 167.764,213.492 168.023 C 214.422 168.281,215.647 168.922,216.212 169.447 C 216.883 170.068,217.722 170.400,218.621 170.400 C 219.379 170.400,220.000 170.569,220.000 170.775 C 220.000 170.982,220.812 171.273,221.805 171.422 C 222.798 171.571,223.708 171.852,223.829 172.046 C 223.949 172.241,224.742 172.400,225.590 172.400 C 226.439 172.400,227.201 172.603,227.284 172.851 C 227.366 173.099,228.375 173.392,229.525 173.502 C 230.676 173.613,231.714 173.860,231.832 174.052 C 231.950 174.243,232.991 174.400,234.144 174.400 C 235.297 174.400,236.432 174.592,236.667 174.827 C 236.903 175.063,238.784 175.356,240.847 175.479 C 242.911 175.603,244.903 175.861,245.274 176.052 C 245.644 176.243,247.849 176.400,250.174 176.400 C 254.011 176.400,255.140 176.695,254.000 177.400 C 253.780 177.536,253.600 179.156,253.600 181.000 C 253.600 182.844,253.444 184.449,253.253 184.567 C 253.062 184.685,252.822 186.666,252.719 188.970 C 252.605 191.531,252.334 193.398,252.020 193.776 C 251.645 194.228,251.585 195.122,251.798 197.097 C 252.217 200.983,252.111 204.775,251.443 209.800 C 251.122 212.220,250.671 215.820,250.441 217.800 C 249.486 226.040,248.763 231.955,248.413 234.400 C 248.080 236.721,247.601 240.675,246.401 251.000 C 245.810 256.084,244.816 263.970,244.410 266.800 C 244.048 269.317,243.304 275.344,242.384 283.200 C 241.706 288.983,240.810 295.260,240.618 295.572 C 240.481 295.792,160.515 295.877,159.546 295.657 C 159.269 295.595,158.642 291.574,157.977 285.600 C 156.998 276.812,155.760 267.113,155.219 264.000 L 154.907 262.200 154.853 264.080 C 154.824 265.114,154.977 266.824,155.193 267.880 C 155.581 269.775,156.220 274.953,156.786 280.800 C 157.327 286.382,158.037 291.790,158.520 294.000 L 159.000 296.200 199.983 296.200 L 240.967 296.200 241.442 294.800 C 241.704 294.030,242.131 291.420,242.393 289.000 C 243.166 281.841,243.504 278.890,244.181 273.400 C 244.533 270.540,244.987 266.850,245.188 265.200 C 245.390 263.550,245.845 259.950,246.199 257.200 C 246.554 254.450,247.002 250.760,247.197 249.000 C 247.391 247.240,247.845 243.460,248.205 240.600 C 248.566 237.740,249.017 234.050,249.209 232.400 C 249.400 230.750,249.846 227.060,250.199 224.200 C 250.551 221.340,250.998 217.560,251.191 215.800 C 251.384 214.040,251.837 210.260,252.197 207.400 C 252.557 204.540,252.917 200.760,252.996 199.000 C 253.075 197.240,253.328 194.450,253.557 192.800 C 253.977 189.786,254.992 181.494,255.388 177.841 C 255.700 174.970,255.426 174.800,250.472 174.800 C 245.810 174.800,241.570 174.339,235.200 173.139 C 227.656 171.719,223.876 170.744,216.400 168.292 C 214.090 167.534,211.390 166.687,210.400 166.410 C 209.410 166.133,207.790 165.670,206.800 165.381 C 201.181 163.740,196.683 162.844,188.800 161.792 C 184.606 161.233,168.227 160.629,166.800 160.982 M184.492 250.100 L 184.585 264.600 184.792 250.400 L 185.000 236.200 199.400 235.992 L 213.800 235.785 199.100 235.692 L 184.400 235.600 184.492 250.100 M152.086 241.600 C 152.083 242.810,152.224 244.250,152.400 244.800 C 152.856 246.224,152.874 243.183,152.423 241.000 C 152.094 239.409,152.092 239.412,152.086 241.600 M153.010 249.000 C 153.113 250.760,153.354 253.100,153.546 254.200 L 153.893 256.200 153.930 254.400 C 153.950 253.410,153.709 251.070,153.394 249.200 L 152.822 245.800 153.010 249.000 M154.074 258.400 C 154.064 259.610,154.211 260.960,154.400 261.400 C 154.867 262.488,154.883 260.025,154.423 257.800 C 154.092 256.202,154.092 256.202,154.074 258.400 " stroke="none" fill="#042a69" fill-rule="evenodd"></path></g></svg>